<svg width="32" height="32" viewBox="0 0 32 32" fill="none" xmlns="http://www.w3.org/2000/svg">
<path d="M16 2.8832C20.272 2.8832 20.7792 2.8992 22.4672 2.9776C26.8032 3.1744 28.8272 5.232 29.0256 9.536C29.1024 11.2224 29.1168 11.728 29.1168 16C29.1168 20.2752 29.1008 20.7808 29.0256 22.4672C28.8272 26.7664 26.8064 28.8272 22.4656 29.0256C20.7792 29.1024 20.2736 29.1184 16 29.1184C11.728 29.1184 11.2208 29.1024 9.536 29.0256C5.1872 28.8272 3.1728 26.76 2.976 22.4656C2.8992 20.7792 2.8832 20.2736 2.8832 16C2.8832 11.728 2.8992 11.2224 2.976 9.536C3.1744 5.232 5.1952 3.1728 9.536 2.976C11.2224 2.8992 11.728 2.8832 16 2.8832ZM16 0C11.6544 0 11.1104 0.0192 9.4032 0.096C3.5936 0.3632 0.3632 3.5872 0.0976 9.4032C0.016 11.1104 0 11.6544 0 16C0 20.3456 0.0192 20.8912 0.096 22.5968C0.3632 28.408 3.5872 31.6368 9.4032 31.904C11.1104 31.9808 11.6544 32 16 32C20.3456 32 20.8912 31.9808 22.5968 31.904C28.4032 31.6368 31.64 28.4128 31.9024 22.5968C31.9824 20.8912 32 20.3456 32 16C32 11.6544 31.9808 11.1104 31.904 9.4048C31.6432 3.5984 28.416 0.3648 22.5984 0.096C20.8912 0.016 20.3456 0 16 0ZM16 7.784C13.821 7.784 11.7312 8.64961 10.1904 10.1904C8.64961 11.7312 7.784 13.821 7.784 16C7.784 18.179 8.64961 20.2688 10.1904 21.8096C11.7312 23.3504 13.821 24.216 16 24.216C18.179 24.216 20.2688 23.3504 21.8096 21.8096C23.3504 20.2688 24.216 18.179 24.216 16C24.216 13.821 23.3504 11.7312 21.8096 10.1904C20.2688 8.64961 18.179 7.784 16 7.784ZM16 21.3328C14.5857 21.3328 13.2292 20.771 12.2291 19.7709C11.229 18.7708 10.6672 17.4143 10.6672 16C10.6672 14.5857 11.229 13.2292 12.2291 12.2291C13.2292 11.229 14.5857 10.6672 16 10.6672C17.4143 10.6672 18.7708 11.229 19.7709 12.2291C20.771 13.2292 21.3328 14.5857 21.3328 16C21.3328 17.4143 20.771 18.7708 19.7709 19.7709C18.7708 20.771 17.4143 21.3328 16 21.3328ZM24.5408 5.5408C24.0316 5.5408 23.5432 5.74309 23.1832 6.10316C22.8231 6.46322 22.6208 6.95158 22.6208 7.4608C22.6208 7.97002 22.8231 8.45837 23.1832 8.81845C23.5432 9.17851 24.0316 9.3808 24.5408 9.3808C25.05 9.3808 25.5384 9.17851 25.8984 8.81845C26.2585 8.45837 26.4608 7.97002 26.4608 7.4608C26.4608 6.95158 26.2585 6.46322 25.8984 6.10316C25.5384 5.74309 25.05 5.5408 24.5408 5.5408Z" fill="#2C7566"/>
</svg>
