<svg width="32" height="32" viewBox="0 0 32 32" fill="none" xmlns="http://www.w3.org/2000/svg">
<path d="M16 0C7.1632 0 0 7.1632 0 16C0 22.7792 4.2176 28.568 10.1696 30.8992C10.0288 29.6336 9.9024 27.6912 10.2256 26.3104C10.5152 25.0624 12.1008 18.3584 12.1008 18.3584C12.1008 18.3584 11.6224 17.3984 11.6224 15.9808C11.6224 13.7568 12.912 12.096 14.5184 12.096C15.8816 12.096 16.5408 13.12 16.5408 14.3488C16.5408 15.7216 15.6672 17.7728 15.216 19.6768C14.8384 21.2688 16.016 22.568 17.584 22.568C20.4288 22.568 22.6144 19.5696 22.6144 15.24C22.6144 11.4112 19.8624 8.7312 15.9328 8.7312C11.3808 8.7312 8.7072 12.1472 8.7072 15.6752C8.7072 17.0496 9.2368 18.5248 9.8992 19.3248C9.9559 19.3855 9.99587 19.4599 10.0152 19.5406C10.0346 19.6214 10.0326 19.7058 10.0096 19.7856L9.5648 21.5984C9.4944 21.8912 9.3328 21.9552 9.0288 21.8128C7.0304 20.8832 5.7808 17.9616 5.7808 15.6144C5.7808 10.568 9.448 5.9312 16.3536 5.9312C21.904 5.9312 26.2176 9.888 26.2176 15.1728C26.2176 20.688 22.7408 25.1248 17.9136 25.1248C16.2928 25.1248 14.7696 24.2848 14.248 23.288L13.2512 27.0928C12.8896 28.4832 11.9152 30.2256 11.2608 31.2864C12.76 31.7504 14.3504 32 16 32C24.8368 32 32 24.8368 32 16C32 7.1632 24.8368 0 16 0Z" fill="#2C7566"/>
</svg>
