<svg width="32" height="32" viewBox="0 0 32 32" fill="none" xmlns="http://www.w3.org/2000/svg">
<path d="M32 3.78811C30.8017 4.44172 29.5305 4.87045 28.2288 5.05999C29.6008 4.05155 30.6275 2.46278 31.1168 0.590667C29.8279 1.53191 28.4177 2.19512 26.9472 2.55166C26.3332 1.74495 25.591 1.10217 24.7666 0.663219C23.9423 0.224271 23.0534 -0.00147124 22.1552 7.21534e-06C17.9152 7.21534e-06 14.8016 4.86704 15.7584 9.91719C13.1483 9.75694 10.5949 8.92303 8.26371 7.46958C5.93257 6.01613 3.87589 3.97564 2.2272 1.48059C1.38839 3.25941 1.13161 5.36457 1.50907 7.36804C1.88652 9.37151 2.86988 11.1229 4.2592 12.266C3.21699 12.2259 2.1977 11.8796 1.2864 11.256C1.2144 14.9969 3.3952 18.4995 6.552 19.2791C5.58514 19.6022 4.57111 19.6493 3.5872 19.417C4.00642 21.0222 4.82302 22.4259 5.92269 23.4317C7.02236 24.4375 8.35007 24.995 9.72 25.0263C6.96802 27.6817 3.47218 28.8848 0 28.3714C3.00205 30.7446 6.49582 32.0043 10.064 32C22.2528 32 29.1408 19.3323 28.7248 7.96998C30.0095 6.82612 31.1185 5.41009 32 3.78811Z" fill="#2C7566"/>
</svg>
