<svg width="32" height="32" viewBox="0 0 32 32" fill="none" xmlns="http://www.w3.org/2000/svg">
<path d="M30.2351 0H1.76649C0.790439 0 0 0.7904 0 1.7664V30.2352C0 31.2096 0.790439 32 1.76649 32H17.0953V19.608H12.9222V14.7792H17.0921V11.216C17.0921 7.0832 19.617 4.832 23.3052 4.832C25.0716 4.832 26.5885 4.9632 27.0317 5.0224V9.3424H24.4748C22.4683 9.3424 22.0811 10.2976 22.0811 11.6944V14.7792H26.8637L26.2397 19.608H22.0795V32H30.2367C31.2096 32 32 31.2096 32 30.2336V1.7664C32.0016 0.7904 31.2112 0 30.2351 0Z" fill="#2C7566"/>
</svg>
